<svg xmlns="http://www.w3.org/2000/svg">

  <symbol id="logo" viewBox="0 0 31 24" fill="currentColor">
    <g clip-path="url(#clip0_3125_691)">
    <path d="M9.15385 5.02513C8.48215 5.00615 7.84452 4.7331 7.3763 4.26398C6.9081 3.79485 6.64615 3.16659 6.64615 2.51258C6.64615 1.85856 6.9081 1.23027 7.3763 0.761146C7.84452 0.292019 8.48215 0.0189969 9.15385 0H25.585C26.2567 0.0189969 26.8944 0.292019 27.3626 0.761146C27.8307 1.23027 28.0927 1.85856 28.0927 2.51258C28.0927 3.16659 27.8307 3.79485 27.3626 4.26398C26.8944 4.7331 26.2567 5.00615 25.585 5.02513H9.15385ZM2.58271 9.39271C3.09352 9.39271 3.59286 9.24528 4.01758 8.96908C4.4423 8.69288 4.77334 8.3003 4.96882 7.841C5.16429 7.38169 5.21543 6.87629 5.11578 6.38871C5.01613 5.90111 4.77013 5.45321 4.40893 5.10169C4.04774 4.75014 3.58754 4.51074 3.08657 4.41373C2.58557 4.31675 2.06626 4.36652 1.59434 4.55677C1.12241 4.74702 0.71905 5.06921 0.435259 5.48257C0.151469 5.89595 0 6.38192 0 6.87907C0.00173124 7.54462 0.274615 8.18236 0.758778 8.65238C1.24294 9.1224 1.89887 9.38636 2.58271 9.38636V9.39271ZM4.93002 18.2742C4.24505 18.2742 3.58809 18.5391 3.10374 19.0105C2.61939 19.4819 2.34731 20.1212 2.34731 20.7879C2.34731 21.4546 2.61939 22.0939 3.10374 22.5652C3.58809 23.0366 4.24505 23.3015 4.93002 23.3015H21.359C22.044 23.3015 22.7009 23.0366 23.1852 22.5652C23.6697 22.0939 23.9417 21.4546 23.9417 20.7879C23.9417 20.1212 23.6697 19.4819 23.1852 19.0105C22.7009 18.5391 22.044 18.2742 21.359 18.2742H4.93002ZM8.68528 9.13818C8.33994 9.1284 7.9961 9.18616 7.67413 9.30803C7.35215 9.42991 7.05855 9.61344 6.81074 9.84771C6.56291 10.082 6.36591 10.3623 6.23139 10.672C6.09685 10.9817 6.02755 11.3145 6.02755 11.6507C6.02755 11.987 6.09685 12.3198 6.23139 12.6295C6.36591 12.9392 6.56291 13.2195 6.81074 13.4538C7.05855 13.6881 7.35215 13.8716 7.67413 13.9934C7.9961 14.1153 8.33994 14.1731 8.68528 14.1633H21.8276C22.173 14.1731 22.5167 14.1153 22.8388 13.9934C23.1608 13.8716 23.4543 13.6881 23.7021 13.4538C23.9499 13.2195 24.147 12.9392 24.2814 12.6295C24.4159 12.3198 24.4852 11.987 24.4852 11.6507C24.4852 11.3145 24.4159 10.9817 24.2814 10.672C24.147 10.3623 23.9499 10.082 23.7021 9.84771C23.4543 9.61344 23.1608 9.42991 22.8388 9.30803C22.5167 9.18616 22.173 9.1284 21.8276 9.13818H8.68528ZM27.9323 13.9088C27.4214 13.9084 26.9217 14.0555 26.4967 14.3315C26.0715 14.6076 25.7402 15.0001 25.5445 15.4595C25.3487 15.9189 25.2973 16.4245 25.3969 16.9123C25.4965 17.4001 25.7426 17.8482 26.1039 18.1998C26.4653 18.5515 26.9256 18.7909 27.4269 18.8878C27.9279 18.9848 28.4475 18.9348 28.9194 18.7443C29.3915 18.5538 29.7949 18.2313 30.0784 17.8176C30.362 17.4039 30.5133 16.9176 30.5128 16.4203C30.5137 16.0899 30.4477 15.7627 30.3182 15.4572C30.1889 15.1518 29.9991 14.8742 29.7594 14.6403C29.5196 14.4064 29.2348 14.2208 28.9214 14.0942C28.6079 13.9676 28.2719 13.9024 27.9323 13.9024V13.9088Z" fill="currentColor"/>
    </g>
    <defs>
    <clipPath id="clip0_3125_691">
    <rect width="30.5128" height="23.3333" fill="white"/>
    </clipPath>
    </defs>
  </symbol>

  <symbol id="trash" viewBox="0 0 20 20" fill="none">
    <path d="M12.9165 9.99992C12.9165 11.6108 11.6107 12.9166 9.99986 12.9166C8.38902 12.9166 7.08319 11.6108 7.08319 9.99992C7.08319 8.38909 8.38902 7.08325 9.99986 7.08325C11.6107 7.08325 12.9165 8.38909 12.9165 9.99992Z" stroke="currentColor" stroke-width="1.25"/>
    <path d="M17.509 11.7471C17.9439 11.6298 18.1614 11.5712 18.2473 11.459C18.3332 11.3469 18.3332 11.1665 18.3332 10.8058V9.19435C18.3332 8.8336 18.3332 8.65318 18.2473 8.5411C18.1613 8.42893 17.9439 8.37026 17.509 8.253C15.8837 7.81467 14.8664 6.11544 15.2859 4.50074C15.4013 4.05667 15.4589 3.83465 15.4038 3.70442C15.3488 3.5742 15.1908 3.48446 14.8746 3.30498L13.4373 2.48896C13.1272 2.31284 12.9721 2.22478 12.8329 2.24353C12.6937 2.26228 12.5367 2.41896 12.2225 2.73229C11.0065 3.94541 8.9945 3.94536 7.77845 2.73221C7.46436 2.41887 7.30732 2.26221 7.16811 2.24345C7.02891 2.2247 6.87381 2.31276 6.56361 2.48887L5.12637 3.30491C4.81028 3.48437 4.65223 3.57411 4.59715 3.70431C4.54207 3.83451 4.59973 4.05657 4.71505 4.50068C5.13431 6.11543 4.11627 7.81471 2.49069 8.25301C2.05577 8.37026 1.83831 8.42893 1.7524 8.54101C1.6665 8.65318 1.6665 8.8336 1.6665 9.19435V10.8058C1.6665 11.1665 1.6665 11.3469 1.7524 11.459C1.8383 11.5712 2.05576 11.6298 2.49069 11.7471C4.116 12.1854 5.13324 13.8847 4.71377 15.4993C4.59841 15.9434 4.54073 16.1654 4.5958 16.2957C4.65089 16.4259 4.80894 16.5157 5.12505 16.6951L6.5623 17.5112C6.87251 17.6873 7.02762 17.7753 7.16684 17.7566C7.30605 17.7378 7.46307 17.5811 7.7771 17.2678C8.99375 16.0537 11.0072 16.0536 12.2239 17.2677C12.5379 17.5811 12.6949 17.7378 12.8342 17.7565C12.9733 17.7753 13.1285 17.6872 13.4387 17.5111L14.8759 16.695C15.1921 16.5156 15.3502 16.4258 15.4052 16.2956C15.4603 16.1653 15.4026 15.9433 15.2872 15.4993C14.8675 13.8847 15.8839 12.1855 17.509 11.7471Z" stroke="currentColor" stroke-width="1.25" stroke-linecap="round"/>
  </symbol>

  <symbol id="warning" viewBox="0 0 20 20" fill="none">
    <g clip-path="url(#clip0_3114_663)">
    <path fill-rule="evenodd" clip-rule="evenodd" d="M9.43998 0.672189C8.7639 0.731429 8.34938 0.792109 7.88278 0.900069C5.60786 1.42647 3.59126 2.81111 2.2759 4.74989C1.21062 6.32005 0.660522 8.10789 0.660522 9.99989C0.660522 11.9689 1.25678 13.8257 2.40742 15.4399C3.7175 17.2777 5.70576 18.6026 7.90998 19.1064C9.41086 19.4495 11.0523 19.4105 12.52 18.997C14.7279 18.3748 16.609 16.9818 17.8636 15.0399C18.2023 14.5156 18.4457 14.0382 18.6995 13.3999C19.3759 11.6994 19.522 9.72779 19.1065 7.90989C18.637 5.85567 17.4589 3.99197 15.8 2.67891C14.4018 1.57225 12.7721 0.906069 10.98 0.708689C10.706 0.678509 9.65264 0.653549 9.43998 0.672189ZM9.84388 5.30123C9.55192 5.35871 9.31072 5.61583 9.26092 5.92265C9.23486 6.08333 9.23304 10.2564 9.25898 10.4357C9.29482 10.6836 9.44756 10.8919 9.67586 11.0043C9.79826 11.0645 9.82472 11.0699 9.99998 11.0699C10.1752 11.0699 10.2017 11.0645 10.3241 11.0043C10.5524 10.8919 10.7051 10.6836 10.741 10.4357C10.7669 10.2564 10.7651 6.08333 10.739 5.92265C10.6878 5.60721 10.4486 5.35841 10.1401 5.29991C10.0196 5.27707 9.96536 5.27731 9.84388 5.30123ZM9.85954 12.5596C9.60484 12.592 9.38812 12.7084 9.19692 12.9155C8.9555 13.177 8.8655 13.5362 8.95078 13.898C9.01322 14.163 9.213 14.4276 9.4614 14.5745C9.59266 14.6521 9.8437 14.7199 9.99998 14.7199C10.1563 14.7199 10.4073 14.6521 10.5386 14.5745C10.787 14.4276 10.9867 14.163 11.0492 13.898C11.1345 13.5362 11.0445 13.177 10.803 12.9155C10.5499 12.6413 10.214 12.5146 9.85954 12.5596Z" fill="currentColor"/>
    </g>
    <defs>
    <clipPath id="clip0_3114_663">
    <rect width="20" height="20" fill="white"/>
    </clipPath>
    </defs>
  </symbol>

  <symbol id="delete" viewBox="0 0 20 20" fill="none">
    <path fill-rule="evenodd" clip-rule="evenodd" d="M4.46967 4.46967C4.76256 4.17678 5.23744 4.17678 5.53033 4.46967L10 8.93934L14.4697 4.46967C14.7626 4.17678 15.2374 4.17678 15.5303 4.46967C15.8232 4.76256 15.8232 5.23744 15.5303 5.53033L11.0607 10L15.5303 14.4697C15.8232 14.7626 15.8232 15.2374 15.5303 15.5303C15.2374 15.8232 14.7626 15.8232 14.4697 15.5303L10 11.0607L5.53033 15.5303C5.23744 15.8232 4.76256 15.8232 4.46967 15.5303C4.17678 15.2374 4.17678 14.7626 4.46967 14.4697L8.93934 10L4.46967 5.53033C4.17678 5.23744 4.17678 4.76256 4.46967 4.46967Z" fill="currentColor"/>
  </symbol>

</svg>
