<svg xmlns="http://www.w3.org/2000/svg">

  <symbol id="logo" viewBox="0 0 31 24" fill="currentColor">
    <g clip-path="url(#clip0_3125_691)">
    <path d="M9.15385 5.02513C8.48215 5.00615 7.84452 4.7331 7.3763 4.26398C6.9081 3.79485 6.64615 3.16659 6.64615 2.51258C6.64615 1.85856 6.9081 1.23027 7.3763 0.761146C7.84452 0.292019 8.48215 0.0189969 9.15385 0H25.585C26.2567 0.0189969 26.8944 0.292019 27.3626 0.761146C27.8307 1.23027 28.0927 1.85856 28.0927 2.51258C28.0927 3.16659 27.8307 3.79485 27.3626 4.26398C26.8944 4.7331 26.2567 5.00615 25.585 5.02513H9.15385ZM2.58271 9.39271C3.09352 9.39271 3.59286 9.24528 4.01758 8.96908C4.4423 8.69288 4.77334 8.3003 4.96882 7.841C5.16429 7.38169 5.21543 6.87629 5.11578 6.38871C5.01613 5.90111 4.77013 5.45321 4.40893 5.10169C4.04774 4.75014 3.58754 4.51074 3.08657 4.41373C2.58557 4.31675 2.06626 4.36652 1.59434 4.55677C1.12241 4.74702 0.71905 5.06921 0.435259 5.48257C0.151469 5.89595 0 6.38192 0 6.87907C0.00173124 7.54462 0.274615 8.18236 0.758778 8.65238C1.24294 9.1224 1.89887 9.38636 2.58271 9.38636V9.39271ZM4.93002 18.2742C4.24505 18.2742 3.58809 18.5391 3.10374 19.0105C2.61939 19.4819 2.34731 20.1212 2.34731 20.7879C2.34731 21.4546 2.61939 22.0939 3.10374 22.5652C3.58809 23.0366 4.24505 23.3015 4.93002 23.3015H21.359C22.044 23.3015 22.7009 23.0366 23.1852 22.5652C23.6697 22.0939 23.9417 21.4546 23.9417 20.7879C23.9417 20.1212 23.6697 19.4819 23.1852 19.0105C22.7009 18.5391 22.044 18.2742 21.359 18.2742H4.93002ZM8.68528 9.13818C8.33994 9.1284 7.9961 9.18616 7.67413 9.30803C7.35215 9.42991 7.05855 9.61344 6.81074 9.84771C6.56291 10.082 6.36591 10.3623 6.23139 10.672C6.09685 10.9817 6.02755 11.3145 6.02755 11.6507C6.02755 11.987 6.09685 12.3198 6.23139 12.6295C6.36591 12.9392 6.56291 13.2195 6.81074 13.4538C7.05855 13.6881 7.35215 13.8716 7.67413 13.9934C7.9961 14.1153 8.33994 14.1731 8.68528 14.1633H21.8276C22.173 14.1731 22.5167 14.1153 22.8388 13.9934C23.1608 13.8716 23.4543 13.6881 23.7021 13.4538C23.9499 13.2195 24.147 12.9392 24.2814 12.6295C24.4159 12.3198 24.4852 11.987 24.4852 11.6507C24.4852 11.3145 24.4159 10.9817 24.2814 10.672C24.147 10.3623 23.9499 10.082 23.7021 9.84771C23.4543 9.61344 23.1608 9.42991 22.8388 9.30803C22.5167 9.18616 22.173 9.1284 21.8276 9.13818H8.68528ZM27.9323 13.9088C27.4214 13.9084 26.9217 14.0555 26.4967 14.3315C26.0715 14.6076 25.7402 15.0001 25.5445 15.4595C25.3487 15.9189 25.2973 16.4245 25.3969 16.9123C25.4965 17.4001 25.7426 17.8482 26.1039 18.1998C26.4653 18.5515 26.9256 18.7909 27.4269 18.8878C27.9279 18.9848 28.4475 18.9348 28.9194 18.7443C29.3915 18.5538 29.7949 18.2313 30.0784 17.8176C30.362 17.4039 30.5133 16.9176 30.5128 16.4203C30.5137 16.0899 30.4477 15.7627 30.3182 15.4572C30.1889 15.1518 29.9991 14.8742 29.7594 14.6403C29.5196 14.4064 29.2348 14.2208 28.9214 14.0942C28.6079 13.9676 28.2719 13.9024 27.9323 13.9024V13.9088Z" fill="currentColor"/>
    </g>
    <defs>
    <clipPath id="clip0_3125_691">
    <rect width="30.5128" height="23.3333" fill="white"/>
    </clipPath>
    </defs>
  </symbol>

  <symbol id="trash" viewBox="0 0 20 20" fill="none">
    <path d="M16.25 4.58325L15.7336 12.9375C15.6016 15.0719 15.5357 16.1392 15.0007 16.9065C14.7361 17.2858 14.3956 17.606 14.0006 17.8466C13.2017 18.3333 12.1325 18.3333 9.99392 18.3333C7.8526 18.3333 6.78192 18.3333 5.98254 17.8457C5.58733 17.6047 5.24667 17.2839 4.98223 16.9039C4.4474 16.1354 4.38287 15.0667 4.25384 12.9293L3.75 4.58325" stroke="currentColor" stroke-width="1.25" stroke-linecap="round"/>
    <path d="M2.5 4.58342H17.5M13.3797 4.58342L12.8109 3.40986C12.433 2.6303 12.244 2.24051 11.9181 1.99742C11.8458 1.9435 11.7693 1.89553 11.6892 1.854C11.3283 1.66675 10.8951 1.66675 10.0287 1.66675C9.14067 1.66675 8.69667 1.66675 8.32973 1.86185C8.24842 1.90509 8.17082 1.955 8.09774 2.01106C7.76803 2.264 7.58386 2.66804 7.21551 3.47613L6.71077 4.58342" stroke="currentColor" stroke-width="1.25" stroke-linecap="round"/>
    <path d="M7.91687 13.75V8.75" stroke="currentColor" stroke-width="1.25" stroke-linecap="round"/>
    <path d="M12.0831 13.75V8.75" stroke="currentColor" stroke-width="1.25" stroke-linecap="round"/>
  </symbol>


  <symbol id="warning" viewBox="0 0 20 20" fill="none">
    <g clip-path="url(#clip0_3114_663)">
    <path fill-rule="evenodd" clip-rule="evenodd" d="M9.43998 0.672189C8.7639 0.731429 8.34938 0.792109 7.88278 0.900069C5.60786 1.42647 3.59126 2.81111 2.2759 4.74989C1.21062 6.32005 0.660522 8.10789 0.660522 9.99989C0.660522 11.9689 1.25678 13.8257 2.40742 15.4399C3.7175 17.2777 5.70576 18.6026 7.90998 19.1064C9.41086 19.4495 11.0523 19.4105 12.52 18.997C14.7279 18.3748 16.609 16.9818 17.8636 15.0399C18.2023 14.5156 18.4457 14.0382 18.6995 13.3999C19.3759 11.6994 19.522 9.72779 19.1065 7.90989C18.637 5.85567 17.4589 3.99197 15.8 2.67891C14.4018 1.57225 12.7721 0.906069 10.98 0.708689C10.706 0.678509 9.65264 0.653549 9.43998 0.672189ZM9.84388 5.30123C9.55192 5.35871 9.31072 5.61583 9.26092 5.92265C9.23486 6.08333 9.23304 10.2564 9.25898 10.4357C9.29482 10.6836 9.44756 10.8919 9.67586 11.0043C9.79826 11.0645 9.82472 11.0699 9.99998 11.0699C10.1752 11.0699 10.2017 11.0645 10.3241 11.0043C10.5524 10.8919 10.7051 10.6836 10.741 10.4357C10.7669 10.2564 10.7651 6.08333 10.739 5.92265C10.6878 5.60721 10.4486 5.35841 10.1401 5.29991C10.0196 5.27707 9.96536 5.27731 9.84388 5.30123ZM9.85954 12.5596C9.60484 12.592 9.38812 12.7084 9.19692 12.9155C8.9555 13.177 8.8655 13.5362 8.95078 13.898C9.01322 14.163 9.213 14.4276 9.4614 14.5745C9.59266 14.6521 9.8437 14.7199 9.99998 14.7199C10.1563 14.7199 10.4073 14.6521 10.5386 14.5745C10.787 14.4276 10.9867 14.163 11.0492 13.898C11.1345 13.5362 11.0445 13.177 10.803 12.9155C10.5499 12.6413 10.214 12.5146 9.85954 12.5596Z" fill="currentColor"/>
    </g>
    <defs>
    <clipPath id="clip0_3114_663">
    <rect width="20" height="20" fill="white"/>
    </clipPath>
    </defs>
  </symbol>

  <symbol id="delete" viewBox="0 0 20 20" fill="none">
    <path fill-rule="evenodd" clip-rule="evenodd" d="M4.46967 4.46967C4.76256 4.17678 5.23744 4.17678 5.53033 4.46967L10 8.93934L14.4697 4.46967C14.7626 4.17678 15.2374 4.17678 15.5303 4.46967C15.8232 4.76256 15.8232 5.23744 15.5303 5.53033L11.0607 10L15.5303 14.4697C15.8232 14.7626 15.8232 15.2374 15.5303 15.5303C15.2374 15.8232 14.7626 15.8232 14.4697 15.5303L10 11.0607L5.53033 15.5303C5.23744 15.8232 4.76256 15.8232 4.46967 15.5303C4.17678 15.2374 4.17678 14.7626 4.46967 14.4697L8.93934 10L4.46967 5.53033C4.17678 5.23744 4.17678 4.76256 4.46967 4.46967Z" fill="currentColor"/>
  </symbol>

</svg>
